<!--?xml version="1.0" encoding="utf-8"?-->
<!-- Generator: Adobe Illustrator 24.1.1, SVG Export Plug-In . SVG Version: 6.00 Build 0)  -->
<svg version="1.1" id="_x31_0" xmlns="http://www.w3.org/2000/svg" xmlns:xlink="http://www.w3.org/1999/xlink" x="0px" y="0px" viewBox="0 0 512 512" style="width: 256px; height: 256px; opacity: 1;" xml:space="preserve">
<style type="text/css">
	.st0{fill:#374149;}
</style>
<g>
	<path class="st0" d="M187.86,375.034c-45.618,31.73-75.77,39.75-89.375,41.836l-3.274,0.566l-41.668,41.668l17.614,0.562
		l10.218,0.285l0.058,0.055c2.317,0.058,5.477-0.055,9.43-0.395c21.453-1.918,66.902-12.93,133.133-63.234l14.508-11.011
		L191.7,372.323L187.86,375.034z" style="fill: rgb(255, 140, 0);"></path>
	<path class="st0" d="M276.614,300.62l35.234-35.23l-16.035-16.035l-39.07,39.07c-3.277,3.274-4.574,7.847-3.558,12.254
		c3.5,15.469,13.324,35.57,35.289,58.774c2.2,2.313,2.145,6.098-0.171,8.301C141.055,512.854,42.418,492.698,30.844,481.124
		s-31.73-110.211,113.371-257.457c2.203-2.317,5.988-2.371,8.301-0.172c23.262,22.019,43.25,31.73,58.778,35.289
		c4.457,1.074,8.977-0.282,12.25-3.558l39.07-39.07l-16.035-16.031l-35.23,35.23c-13.492-4.461-28.285-14.172-43.137-28.23
		c-5.363-5.141-12.476-7.961-20.098-7.906c-7.625,0.058-15.019,3.278-20.214,8.695C-24.484,362.558-8.281,474.066,14.809,497.159
		c23.149,23.149,134.66,39.238,289.414-113.262c5.309-5.078,8.469-12.418,8.527-20.039c0.114-7.57-2.766-14.738-7.906-20.102
		C287.68,325.686,279.946,310.838,276.614,300.62z" style="fill: rgb(255, 140, 0);"></path>
	<path class="st0" d="M502.329,48.842L463.18,9.694c-11.934-11.93-30.262-12.965-40.926-2.3L254.442,175.206
		c-1.031,1.031-1.89,2.133-2.562,3.418l81.524,81.523c1.281-0.676,2.382-1.531,3.418-2.566L504.634,89.768
		C515.294,79.108,514.262,60.776,502.329,48.842z" style="fill: rgb(255, 140, 0);"></path>
</g>
</svg>
